# This file uses centimeters as units for non-parametric coordinates.

mtllib PaintBrush_01.mtl
g default
v -0.207085 123.564362 7.114055
v -0.207085 123.492088 12.007846
v -4.902767 123.492088 8.596228
v 4.488605 123.492088 8.596230
v 2.695007 123.492088 3.076120
v -3.109177 123.492088 3.076118
v -0.207085 -66.925514 13.542030
v 6.095871 -66.925514 8.962665
v 3.688354 -66.925514 1.553098
v -4.102524 -66.925514 1.553097
v -6.510036 -66.925514 8.962664
v -8.576702 -133.759430 8.785376
v -6.289349 -135.723587 8.462106
v -7.753559 -133.775314 4.084559
v -6.558785 -135.737061 5.571877
v 7.339390 -133.775314 4.084559
v 6.144608 -135.737076 5.571877
v 8.162537 -133.759430 8.785376
v 5.875179 -135.723587 8.462107
v -0.207085 -135.821213 7.249347
v 6.955204 -66.894691 9.241914
v -0.207088 -66.896782 14.445642
v 4.219429 -66.891289 0.822176
v -4.633598 -66.891289 0.822175
v -7.369373 -66.894691 9.241913
v -0.207085 27.905596 12.987700
v 5.519215 27.905596 8.827302
v 3.331959 27.905596 2.095638
v -3.746128 27.905596 2.095637
v -5.933380 27.905596 8.827300
v -0.207085 -29.179834 13.385209
v 5.926895 -29.179834 8.928613
v 3.583920 -29.179834 1.717690
v -3.998089 -29.179834 1.717688
v -6.341061 -29.179834 8.928611
v -6.013847 -133.755859 10.868809
v 5.726475 -133.756012 10.812823
v -7.908993 -155.626419 5.762722
v 7.494823 -155.626419 5.762722
v -7.908993 -155.626419 8.735972
v 7.494823 -155.626419 8.735972
v -7.417038 -131.673477 8.735972
v 7.002869 -131.673477 8.735972
v -6.464890 -131.673477 5.762722
v 6.050720 -131.673477 5.762722
v 7.330837 -147.642105 8.735972
v -7.745007 -147.642105 8.735972
v -7.427624 -147.642105 5.762722
v 7.013454 -147.642105 5.762722
v -1.952839 -149.666519 8.735972
vt 0.475000 0.500470
vt 0.425000 0.500470
vt 0.625000 0.500470
vt 0.375000 0.500470
vt 0.575000 0.500470
vt 0.525000 0.500470
vt 0.500000 0.500470
vt 0.475000 0.594455
vt 0.375000 0.594455
vt 0.625000 0.594455
vt 0.575000 0.594455
vt 0.525000 0.594455
vt 0.475000 0.594455
vt 0.525000 0.594455
vt 0.575000 0.594455
vt 0.375000 0.594455
vt 0.475000 0.594455
vt 0.425000 0.547462
vt 0.625000 0.547462
vt 0.375000 0.547462
vt 0.575000 0.547462
vt 0.525000 0.547462
vt 0.475000 0.547462
vt 0.375000 0.547462
vt 0.425000 0.547462
vt 0.575000 0.547462
vt 0.625000 0.547462
vt 0.525000 0.547462
vt 0.475000 0.547462
vt 0.425000 0.523966
vt 0.625000 0.523966
vt 0.375000 0.523966
vt 0.575000 0.523966
vt 0.525000 0.523966
vt 0.475000 0.523966
vt 0.425000 0.535714
vt 0.625000 0.535714
vt 0.375000 0.535714
vt 0.575000 0.535714
vt 0.525000 0.535714
vt 0.475000 0.535714
vt 0.459689 0.594455
vt 0.389553 0.594455
vt 0.375000 0.000000
vt 0.625000 0.000000
vt 0.625000 0.250000
vt 0.375000 0.250000
vt 0.625000 0.500000
vt 0.375000 0.500000
vt 0.625000 0.750000
vt 0.375000 0.750000
vt 0.625000 1.000000
vt 0.375000 1.000000
vt 0.875000 0.000000
vt 0.875000 0.250000
vt 0.125000 0.000000
vt 0.125000 0.250000
vt 0.625000 0.333333
vt 0.708333 0.250000
vt 0.291667 0.250000
vt 0.375000 0.333333
vt 0.291667 0.000000
vt 0.375000 0.916667
vt 0.625000 0.916667
vt 0.708333 0.000000
vt 0.471050 0.333333
vn -0.951060 0.009514 0.308858
vn -0.000000 0.008915 0.999960
vn -0.000000 0.010250 0.999947
vn -0.950880 0.011000 0.309364
vn 0.951060 0.009514 0.308859
vn 0.950880 0.011000 0.309364
vn 0.587677 0.010481 -0.809028
vn 0.587934 0.012214 -0.808817
vn -0.587677 0.010481 -0.809028
vn -0.587934 0.012214 -0.808817
vn 0.000000 0.999891 0.014769
vn 0.013987 0.999892 0.004447
vn 0.000000 1.000000 0.000076
vn -0.013987 0.999892 0.004447
vn -0.008495 0.999894 -0.011790
vn 0.008495 0.999894 -0.011793
vn -0.445776 -0.043990 -0.894063
vn -0.739531 -0.671161 -0.051349
vn -0.739532 -0.671161 -0.051349
vn -0.959263 0.009912 0.282342
vn 0.445776 -0.043990 -0.894063
vn -0.000000 -0.604154 -0.796867
vn -0.000000 -0.604154 -0.796867
vn 0.960647 0.010185 0.277587
vn 0.739530 -0.671162 -0.051348
vn 0.739530 -0.671162 -0.051348
vn 0.601899 0.003599 0.798564
vn 0.481898 -0.656675 0.580132
vn -0.014844 -0.999872 0.006046
vn -0.014844 -0.999872 0.006046
vn -0.014844 -0.999872 0.006046
vn -0.000001 -0.998744 -0.050112
vn -0.000001 -0.998744 -0.050112
vn -0.000001 -0.998744 -0.050112
vn 0.014843 -0.999872 0.006046
vn 0.014843 -0.999872 0.006046
vn 0.014843 -0.999872 0.006046
vn -0.000000 -0.996775 0.080251
vn -0.000000 -0.996775 0.080251
vn -0.000000 -0.996775 0.080251
vn 0.957343 0.020777 0.288208
vn 0.601707 0.007707 0.798679
vn 0.409512 -0.028141 -0.911870
vn -0.409512 -0.028141 -0.911870
vn -0.955904 0.020513 0.292962
vn -0.033129 0.999406 -0.009462
vn -0.000000 0.999460 -0.032862
vn 0.000000 0.999460 -0.032862
vn -0.033129 0.999406 -0.009463
vn -0.021113 0.999316 0.030358
vn -0.021114 0.999316 0.030358
vn 0.021113 0.999316 0.030358
vn 0.021113 0.999316 0.030358
vn 0.033129 0.999406 -0.009463
vn 0.033129 0.999406 -0.009464
vn 0.951049 0.006189 0.308978
vn -0.000000 0.005810 0.999983
vn 0.587755 0.006802 -0.809011
vn -0.587755 0.006802 -0.809011
vn -0.951049 0.006189 0.308978
vn 0.951108 0.004536 0.308826
vn -0.000000 0.004155 0.999991
vn 0.587679 0.005154 -0.809078
vn -0.587679 0.005154 -0.809078
vn -0.951108 0.004536 0.308826
vn -0.599789 0.003259 0.800151
vn -0.599632 0.007315 0.800242
vn -0.477343 -0.652715 0.588309
vn 0.004582 -0.124068 0.992263
vn 0.004761 -0.053833 0.998539
vn 0.004579 -0.125267 0.992113
vn 0.001488 -0.770562 0.637363
vn 0.001488 -0.770562 0.637363
vn 0.000000 -1.000000 0.000000
vn 0.000000 -1.000000 0.000000
vn 0.000000 -1.000000 0.000000
vn 0.000000 -1.000000 0.000000
vn -0.000000 0.000000 1.000000
vn -0.000000 0.000000 1.000000
vn -0.000000 0.000000 1.000000
vn 0.000000 1.000000 -0.000000
vn 0.000000 1.000000 -0.000000
vn 0.000000 1.000000 -0.000000
vn 0.000000 1.000000 -0.000000
vn 0.000000 0.000000 -1.000000
vn 0.000000 0.000000 -1.000000
vn 0.000000 0.000000 -1.000000
vn 0.000000 0.000000 -1.000000
vn 0.997767 0.040324 -0.053254
vn 0.986593 0.039872 -0.158257
vn 0.986652 0.039874 -0.157884
vn 0.997767 0.040324 -0.053254
vn -0.986593 0.039872 -0.158257
vn -0.997767 0.040323 -0.053254
vn -0.997767 0.040323 -0.053254
vn -0.986652 0.039874 -0.157884
vn 0.000000 0.000000 1.000000
vn -0.977198 0.039492 -0.208624
vn -0.977198 0.039492 -0.208624
vn 0.000000 0.000000 -1.000000
vn 0.000000 0.000000 -1.000000
vn 0.977198 0.039492 -0.208624
vn 0.977198 0.039492 -0.208624
vn 0.000000 0.000000 1.000000
vn 0.000000 0.000000 1.000000
vn 0.000000 0.000000 1.000000
vn 0.000000 0.000000 1.000000
vn 0.000000 0.000000 1.000000
vn 0.000000 0.000000 1.000000
s 1
g pCylinder13
usemtl blinn6SG
f 30/35/1 26/30/2 2/2/3 3/1/4
f 27/32/5 4/4/6 2/2/3 26/30/2
f 28/33/7 5/5/8 4/3/6 27/31/5
f 29/34/9 6/6/10 5/5/8 28/33/7
f 29/34/9 30/35/1 3/1/4 6/6/10
s 2
f 2/2/11 4/4/12 1/7/13
f 3/1/14 2/2/11 1/7/13
f 6/6/15 3/1/14 1/7/13
f 5/5/16 6/6/15 1/7/13
f 4/3/12 5/5/16 1/7/13
s 3
usemtl blinn5SG
f 14/12/17 15/14/18 13/13/19 12/8/20
f 14/12/17 16/11/21 17/15/22 15/14/23
f 16/11/21 18/9/24 19/16/25 17/15/26
f 18/9/24 37/43/27 19/16/28
s off
f 13/13/29 15/14/30 20/17/31
f 15/14/32 17/15/33 20/17/34
f 17/15/35 19/16/36 20/17/37
f 20/17/38 19/16/39 13/13/40
s 3
f 18/9/24 21/24/41 22/25/42 37/43/27
f 16/11/21 23/26/43 21/27/41 18/10/24
f 14/12/17 24/28/44 23/26/43 16/11/21
f 14/12/17 12/8/20 25/29/45 24/28/44
s 7
f 8/20/46 7/18/47 22/25/48 21/24/49
f 9/21/50 8/19/46 21/27/49 23/26/51
f 10/22/52 9/21/50 23/26/51 24/28/53
f 11/23/54 10/22/52 24/28/53 25/29/55
f 7/18/47 11/23/54 25/29/55 22/25/48
s 1
usemtl blinn6SG
f 32/38/56 27/32/5 26/30/2 31/36/57
f 33/39/58 28/33/7 27/31/5 32/37/56
f 34/40/59 29/34/9 28/33/7 33/39/58
f 34/40/59 35/41/60 30/35/1 29/34/9
f 35/41/60 31/36/57 26/30/2 30/35/1
f 8/20/61 32/38/56 31/36/57 7/18/62
f 9/21/63 33/39/58 32/37/56 8/19/61
f 10/22/64 34/40/59 33/39/58 9/21/63
f 10/22/64 11/23/65 35/41/60 34/40/59
f 11/23/65 7/18/62 31/36/57 35/41/60
s 3
usemtl blinn5SG
f 12/8/20 36/42/66 22/25/67 25/29/45
f 13/13/68 36/42/66 12/8/20
s 8
f 37/43/69 22/25/70 36/42/71
f 19/16/72 37/43/69 36/42/71 13/13/73
s off
usemtl blinn2SG
f 38/44/74 39/45/75 41/46/76 40/47/77
s 9
f 50/66/78 41/46/79 46/58/80
s off
usemtl blinn5SG
f 42/49/81 43/48/82 45/50/83 44/51/84
s 10
usemtl blinn2SG
f 48/63/85 49/64/86 39/52/87 38/53/88
s 11
f 39/45/89 49/65/90 46/59/91 41/46/92
s 12
f 48/62/93 38/44/94 40/47/95 47/60/96
s 9
usemtl blinn6SG
f 43/48/97 50/66/78 46/58/80
s 12
f 48/62/93 47/60/96 42/57/98 44/56/99
s 10
f 49/64/86 48/63/85 44/51/100 45/50/101
s 11
f 43/55/102 46/59/91 49/65/90 45/54/103
s 13
f 42/49/104 47/61/105 50/66/106 43/48/107
usemtl blinn2SG
f 40/47/108 41/46/109 50/66/106 47/61/105
